<!-- Placeholder para código QR -->
<svg width="200" height="200" viewBox="0 0 200 200" xmlns="http://www.w3.org/2000/svg">
  <rect width="200" height="200" fill="#f8f9fa" stroke="#dee2e6" stroke-width="2"/>
  <text x="100" y="90" text-anchor="middle" font-family="Arial, sans-serif" font-size="16" fill="#6c757d">Código QR</text>
  <text x="100" y="110" text-anchor="middle" font-family="Arial, sans-serif" font-size="12" fill="#adb5bd">de pago</text>
  
  <!-- Simular patron QR -->
  <rect x="20" y="20" width="15" height="15" fill="#000"/>
  <rect x="40" y="20" width="15" height="15" fill="#000"/>
  <rect x="60" y="20" width="15" height="15" fill="#000"/>
  <rect x="20" y="40" width="15" height="15" fill="#000"/>
  <rect x="60" y="40" width="15" height="15" fill="#000"/>
  <rect x="20" y="60" width="15" height="15" fill="#000"/>
  <rect x="40" y="60" width="15" height="15" fill="#000"/>
  <rect x="60" y="60" width="15" height="15" fill="#000"/>
  
  <rect x="165" y="20" width="15" height="15" fill="#000"/>
  <rect x="145" y="20" width="15" height="15" fill="#000"/>
  <rect x="125" y="20" width="15" height="15" fill="#000"/>
  <rect x="165" y="40" width="15" height="15" fill="#000"/>
  <rect x="125" y="40" width="15" height="15" fill="#000"/>
  <rect x="165" y="60" width="15" height="15" fill="#000"/>
  <rect x="145" y="60" width="15" height="15" fill="#000"/>
  <rect x="125" y="60" width="15" height="15" fill="#000"/>
  
  <rect x="20" y="165" width="15" height="15" fill="#000"/>
  <rect x="40" y="165" width="15" height="15" fill="#000"/>
  <rect x="60" y="165" width="15" height="15" fill="#000"/>
  <rect x="20" y="145" width="15" height="15" fill="#000"/>
  <rect x="60" y="145" width="15" height="15" fill="#000"/>
  <rect x="20" y="125" width="15" height="15" fill="#000"/>
  <rect x="40" y="125" width="15" height="15" fill="#000"/>
  <rect x="60" y="125" width="15" height="15" fill="#000"/>
</svg>
